# xmcd
#
# Track frame offsets: 
#        150
#        15186
#        27582
#        44072
#        59658
#        73301
#        87444
#        102461
#        118068
#        132197
#        143693
#        174543
#
# Disc length: 2936 seconds
#
# Revision: 0
# Processed by: cddbd v1.5.2PL0 Copyright (c) Steve Scherf et al.
# Submitted via: ExactAudioCopy v0.99pb5
#
DISCID=b20b760c
DTITLE=Crazy Rhythm Daddies - How `Bout It?
DYEAR=2001
DGENRE=Swing
TTITLE0=Against My Will
TTITLE1=How 'Bout It?
TTITLE2=Atomic Cocktail
TTITLE3=Hit That Jive Jack
TTITLE4=Gitty Up, Gitty I, Whoa Mule
TTITLE5=Planet Jive
TTITLE6=Number 9
TTITLE7=5 Guys Named Moe
TTITLE8=Ain't Gonna Do It
TTITLE9=Been Gone A Long Time
TTITLE10=Blues Stay Away From Me
TTITLE11=Data
EXTD=
EXTT0=
EXTT1=
EXTT2=
EXTT3=
EXTT4=
EXTT5=
EXTT6=
EXTT7=
EXTT8=
EXTT9=
EXTT10=
EXTT11=
PLAYORDER=
